<svg xmlns="http://www.w3.org/2000/svg" width="24.34" height="28.302" viewBox="0 0 24.34 28.302"><defs><style>.a{fill:#fff;}</style></defs><path class="a" d="M60.128,120.274v-.206a6.121,6.121,0,0,1-3.654-5.763A6.354,6.354,0,0,1,59.2,109l.1-.051a6.524,6.524,0,0,0-5.146-2.83c-1.7,0-3.088,1.6-5.4,1.6-1.853,0-2.624-1.544-4.631-1.544a8.633,8.633,0,0,0-8.285,8.491,21.405,21.405,0,0,0,2.727,9.777c1.338,2.47,3.036,4.117,4.94,4.117,1.338,0,2.985-1.235,4.889-1.235,1.7,0,3.242,1.081,4.786,1.081,3.654,0,7-4.631,7-7.77,0-.1-.051-.206-.051-.36" transform="translate(-35.84 -100.257)"/><path class="a" d="M265.877,7.513c2.727-.823,5.249-2.83,5.249-6.329a9.818,9.818,0,0,0-.1-1.029V0c-2.779.772-5.249,2.882-5.249,6.226a10.231,10.231,0,0,0,.1,1.132v.154Z" transform="translate(-253.064 0)"/></svg>