<svg xmlns="http://www.w3.org/2000/svg" width="60" height="60" viewBox="0 0 60 60">
    <g fill="none" fill-rule="evenodd">
        <path stroke="#FFD371" stroke-width="2" d="M30 1C13.984 1 1 13.984 1 30s12.984 29 29 29c16.017 0 29-12.983 29-29C59 13.984 46.017 1 30 1z"/>
        <path fill="#FFD371" fill-rule="nonzero" d="M47.513 22.026L26.379 43.091a1.479 1.479 0 0 1-1.07.431 1.48 1.48 0 0 1-1.07-.431L13.91 32.797a1.473 1.473 0 0 1 0-2.089 1.486 1.486 0 0 1 2.095 0l9.303 9.272 20.109-20.042a1.485 1.485 0 0 1 2.095 0 1.473 1.473 0 0 1 0 2.088z"/>
    </g>
</svg>
