<svg xmlns="http://www.w3.org/2000/svg" width="24.447" height="24.448" viewBox="0 0 24.447 24.448"><defs><style>.a{fill:#fff;}</style></defs><g transform="translate(0 0)"><path class="a" d="M-1048.2-945.553h-10.116a1.688,1.688,0,0,1-1.686-1.686v-21.074a1.688,1.688,0,0,1,1.686-1.687h21.075a1.688,1.688,0,0,1,1.686,1.687v21.074a1.688,1.688,0,0,1-1.686,1.686h-6.744v-8.429h4.215V-958.2h-4.215v-2.529a.843.843,0,0,1,.842-.842h3.793v-4.215h-4.215a5.015,5.015,0,0,0-3.3,1.612,5.078,5.078,0,0,0-1.338,3.445v2.529h-3.371v4.216h3.371v8.429Z" transform="translate(1060 970)"/></g></svg>