<svg xmlns="http://www.w3.org/2000/svg" width="25.302" height="25.302" viewBox="0 0 25.302 25.302"><defs><style>.a{fill:#fff;}</style></defs><path class="a" d="M17.764,0H7.538A7.546,7.546,0,0,0,0,7.538V17.764A7.546,7.546,0,0,0,7.538,25.3H17.764A7.546,7.546,0,0,0,25.3,17.764V7.538A7.546,7.546,0,0,0,17.764,0Zm4.992,17.764a4.992,4.992,0,0,1-4.992,4.992H7.538a4.992,4.992,0,0,1-4.992-4.992V7.538A4.992,4.992,0,0,1,7.538,2.545H17.764a4.992,4.992,0,0,1,4.992,4.992V17.764Z"/><path class="a" d="M139.544,133a6.544,6.544,0,1,0,6.544,6.544A6.551,6.551,0,0,0,139.544,133Zm0,10.543a4,4,0,1,1,4-4A4,4,0,0,1,139.544,143.543Z" transform="translate(-126.893 -126.893)"/><ellipse class="a" cx="1.568" cy="1.568" rx="1.568" ry="1.568" transform="translate(17.64 4.588)"/></svg>