<svg xmlns="http://www.w3.org/2000/svg" width="36.274" height="15.455" viewBox="0 0 36.274 15.455"><defs><style>.a{fill:#fff;}</style></defs><path class="a" d="M250.358,139.44a4.2,4.2,0,0,0-6.2-3.393,7.726,7.726,0,0,0-10.853-6.9.571.571,0,0,0-.337.523v13.7a.573.573,0,0,0,.573.573h12.626A4.2,4.2,0,0,0,250.358,139.44Z" transform="translate(-214.094 -128.482)"/><path class="a" d="M212.639,139.431a.577.577,0,0,0-.577.577v13.4a.577.577,0,0,0,1.154,0v-13.4A.577.577,0,0,0,212.639,139.431Z" transform="translate(-194.881 -138.544)"/><path class="a" d="M189.077,157.019a.577.577,0,0,0-.577.577V169.57a.577.577,0,1,0,1.154,0V157.6A.577.577,0,0,0,189.077,157.019Z" transform="translate(-173.228 -154.707)"/><path class="a" d="M165.514,165.033a.577.577,0,0,0-.577.577v11.325a.577.577,0,1,0,1.154,0V165.61A.577.577,0,0,0,165.514,165.033Z" transform="translate(-151.574 -162.072)"/><path class="a" d="M141.952,154.348a.577.577,0,0,0-.577.577v12.191a.577.577,0,1,0,1.154,0V154.925A.577.577,0,0,0,141.952,154.348Z" transform="translate(-129.921 -152.252)"/><path class="a" d="M118.389,161.471a.577.577,0,0,0-.577.577v11.614a.577.577,0,0,0,1.154,0V162.048A.577.577,0,0,0,118.389,161.471Z" transform="translate(-108.267 -158.798)"/><path class="a" d="M94.827,175.718a.577.577,0,0,0-.577.577v10.46a.577.577,0,0,0,1.154,0v-10.46A.577.577,0,0,0,94.827,175.718Z" transform="translate(-86.614 -171.891)"/><path class="a" d="M71.265,203.32a.577.577,0,0,0-.577.577v8.223a.577.577,0,0,0,1.154,0V203.9A.577.577,0,0,0,71.265,203.32Z" transform="translate(-64.961 -197.257)"/><path class="a" d="M47.7,214.895a.577.577,0,0,0-.577.577v7.285a.577.577,0,0,0,1.154,0v-7.285A.577.577,0,0,0,47.7,214.895Z" transform="translate(-43.307 -207.894)"/><path class="a" d="M24.14,217.551a.577.577,0,0,0-.577.577v6.855a.577.577,0,0,0,1.154,0v-6.855A.577.577,0,0,0,24.14,217.551Z" transform="translate(-21.654 -210.335)"/><path class="a" d="M.577,236.143A.577.577,0,0,0,0,236.72v3.95a.577.577,0,0,0,1.154,0v-3.95A.577.577,0,0,0,.577,236.143Z" transform="translate(0 -227.42)"/></svg>