<svg xmlns="http://www.w3.org/2000/svg" width="42.806" height="33.977" viewBox="0 0 42.806 33.977"><defs><style>.a{fill:#fff;}</style></defs><g transform="translate(0 -0.887)"><path class="a" d="M213.409,139.431a1.347,1.347,0,0,0-1.347,1.347v31.283a1.347,1.347,0,0,0,2.694,0V140.778A1.347,1.347,0,0,0,213.409,139.431Z" transform="translate(-171.95 -138.544)"/><path class="a" d="M189.847,157.019a1.347,1.347,0,0,0-1.347,1.347v27.957a1.347,1.347,0,0,0,2.694,0V158.366A1.347,1.347,0,0,0,189.847,157.019Z" transform="translate(-152.845 -152.805)"/><path class="a" d="M166.284,165.033a1.347,1.347,0,0,0-1.347,1.347V192.82a1.347,1.347,0,1,0,2.694,0V166.38A1.347,1.347,0,0,0,166.284,165.033Z" transform="translate(-133.739 -159.303)"/><path class="a" d="M142.722,154.348a1.347,1.347,0,0,0-1.347,1.347v28.462a1.347,1.347,0,1,0,2.694,0V155.695A1.347,1.347,0,0,0,142.722,154.348Z" transform="translate(-114.634 -150.639)"/><path class="a" d="M119.159,161.471a1.347,1.347,0,0,0-1.347,1.347v27.115a1.347,1.347,0,0,0,2.694,0V162.818A1.347,1.347,0,0,0,119.159,161.471Z" transform="translate(-95.528 -156.415)"/><path class="a" d="M95.6,175.718a1.347,1.347,0,0,0-1.347,1.347v24.42a1.347,1.347,0,0,0,2.694,0v-24.42A1.346,1.346,0,0,0,95.6,175.718Z" transform="translate(-76.422 -167.967)"/><path class="a" d="M72.035,203.32a1.347,1.347,0,0,0-1.347,1.347v19.2a1.347,1.347,0,0,0,2.694,0v-19.2A1.347,1.347,0,0,0,72.035,203.32Z" transform="translate(-57.317 -190.348)"/><path class="a" d="M48.472,214.895a1.347,1.347,0,0,0-1.347,1.347v17.009a1.347,1.347,0,0,0,2.694,0V216.242A1.347,1.347,0,0,0,48.472,214.895Z" transform="translate(-38.211 -199.734)"/><path class="a" d="M24.91,217.551a1.347,1.347,0,0,0-1.347,1.347v16a1.347,1.347,0,0,0,2.694,0v-16A1.347,1.347,0,0,0,24.91,217.551Z" transform="translate(-19.106 -201.887)"/><path class="a" d="M1.347,236.143A1.347,1.347,0,0,0,0,237.49v9.222a1.347,1.347,0,0,0,2.694,0V237.49A1.347,1.347,0,0,0,1.347,236.143Z" transform="translate(0 -216.963)"/></g></svg>