<svg xmlns="http://www.w3.org/2000/svg" width="25.302" height="25.302" viewBox="0 0 25.302 25.302"><defs><style>.a{fill:#fff;}</style></defs><path class="a" d="M12.651,0A12.651,12.651,0,1,0,25.3,12.651,12.651,12.651,0,0,0,12.651,0Zm5.506,18.36a.865.865,0,0,1-1.183.31,12.735,12.735,0,0,0-6.7-1.487,16.628,16.628,0,0,0-3.477.459.865.865,0,0,1-.459-1.668,18.013,18.013,0,0,1,3.835-.519,16.889,16.889,0,0,1,3.694.267,12.468,12.468,0,0,1,3.983,1.454A.865.865,0,0,1,18.157,18.36Zm1.608-3.34a1.024,1.024,0,0,1-1.4.368,15.085,15.085,0,0,0-7.94-1.762A19.7,19.7,0,0,0,6.3,14.17a1.025,1.025,0,0,1-.543-1.976,21.332,21.332,0,0,1,4.542-.614,20.009,20.009,0,0,1,4.376.317A14.771,14.771,0,0,1,19.4,13.618,1.025,1.025,0,0,1,19.765,15.02Zm.989-3.037a1.251,1.251,0,0,1-.633-.172c-6.4-3.741-14.707-1.517-14.79-1.494a1.257,1.257,0,0,1-.668-2.424,26.164,26.164,0,0,1,5.571-.754,24.548,24.548,0,0,1,5.367.389A18.116,18.116,0,0,1,21.389,9.64a1.257,1.257,0,0,1-.635,2.342Z"/></svg>