<svg xmlns="http://www.w3.org/2000/svg" width="30.265" height="24.447" viewBox="0 0 30.265 24.447"><defs><style>.a{fill:#fff;}</style></defs><path class="a" d="M21.123,49.172a6.527,6.527,0,0,0-6.271,6.59v.85C8.581,55.5,5.5,53.8,2.1,50.235c-2.019,3.933.213,7.228,2.657,9.035A5.776,5.776,0,0,1,.662,58.1c-.106-.053-.213,0-.159.106A9.877,9.877,0,0,0,6.88,64.584c-2.179,0-3.614.319-5.155-.638-.106-.053-.213,0-.159.106C2.735,67.294,5.073,68.3,8.474,68.3A13.179,13.179,0,0,1,.184,70.961a.175.175,0,0,0-.106.319c1.594,1.329,5.527,2.338,11.054,2.338,9.088,0,16.475-8.078,16.475-18.069v-.531a4.648,4.648,0,0,0,2.657-3.082.114.114,0,0,0-.106-.106l-3.029,1.063a.1.1,0,0,1-.053-.159,8.131,8.131,0,0,0,2.657-3.508.186.186,0,0,0-.106-.053c-1.435.585-2.817,1.169-3.88,1.488a.629.629,0,0,1-.531-.053,11.182,11.182,0,0,0-4.092-1.435" transform="translate(0.001 -49.172)"/></svg>