<svg xmlns="http://www.w3.org/2000/svg" width="30.292" height="24.447" viewBox="0 0 30.292 24.447"><defs><style>.a{fill:#fff;}</style></defs><g transform="translate(0 0)"><path class="a" d="M-879.854-945.554h0c-.324,0-7.952-.064-10.287-.333-.128-.031-.283-.055-.463-.081a4.183,4.183,0,0,1-2.88-1.419,8.531,8.531,0,0,1-1.2-3.445c0-.028-.313-2.829-.313-5.612v-2.611c0-2.783.31-5.639.313-5.667a7.8,7.8,0,0,1,1.2-3.445,4.06,4.06,0,0,1,2.938-1.436l.09-.008c4.117-.324,10.339-.386,10.6-.389s6.487.065,10.6.389l.144.012a3.8,3.8,0,0,1,2.886,1.432,8.612,8.612,0,0,1,1.2,3.445c0,.029.313,2.885.313,5.667v2.611c0,2.728-.31,5.583-.313,5.612a8.531,8.531,0,0,1-1.2,3.445,4.059,4.059,0,0,1-2.939,1.436h-.01l-.081.008C-873.434-945.558-879.79-945.554-879.854-945.554ZM-883.509-963v11.334l9.923-5.536-9.923-5.8Z" transform="translate(895 970)"/></g></svg>